# File created by Blade
# Date/Time:  Fri Jan 16 19:14:41 2015
#---------------------------------------------------------
:version 1.10
:name HOM
:units
  mass 1.0
  length 1.000000
  angle deg
:documentation
     Acclaim Skeleton File
:root
   axis xyz
   order TX TY TZ RX RY RZ
   position 0.000000 0.000000 0.000000
   orientation 0 0 0
:bonedata
   begin
      id 1
      name Spine_dum
      direction 0.000000 1.000000 0.000000
      length 7.067664
      axis 0.0 0.0 0.0 xyz
   end
   begin
      id 2
      name LeftUpLeg_dum
      direction 1.000000 0.000000 0.000000
      length 4.013002
      axis 0.0 0.0 0.0 xyz
   end
   begin
      id 3
      name RightUpLeg_dum
      direction -1.000000 0.000000 0.000000
      length 4.013002
      axis 0.0 0.0 0.0 xyz
   end
   begin
      id 4
      name Spine
      direction 0.000000 1.000000 0.000000
      length 0.000000
      axis 0.0 0.0 0.0 xyz
      dof rx ry rz
   end
   begin
      id 5
      name Spine_dum1
      direction 0.000000 1.000000 0.000000
      length 15.039886
      axis 0.0 0.0 0.0 xyz
   end
   begin
      id 6
      name Spine_dum2
      direction 0.000000 1.000000 0.000000
      length 10.530368
      axis 0.0 0.0 0.0 xyz
   end
   begin
      id 7
      name Spine_dum3
      direction 0.000000 1.000000 0.000000
      length 10.530368
      axis 0.0 0.0 0.0 xyz
   end
   begin
      id 8
      name Head
      direction 0.000000 1.000000 0.000000
      length 4.527550
      axis 0.0 0.0 0.0 xyz
      dof rx ry rz
   end
   begin
      id 9
      name LeftShoulder
      direction 1.000000 0.000000 0.000000
      length 7.028855
      axis 0.0 0.0 -90.0 xyz
      dof rx ry rz
   end
   begin
      id 10
      name LeftArm
      direction 1.000000 0.000000 0.000000
      length 10.797705
      axis 0.0 0.0 -90.0 xyz
      dof rx ry rz
   end
   begin
      id 11
      name LeftForeArm
      direction 1.000000 0.000000 0.000000
      length 7.907442
      axis 0.0 0.0 -90.0 xyz
      dof ry rz rx
   end
   begin
      id 12
      name LeftHand
      direction 0.000000 0.000000 0.000000
      length 0.000000
      axis 0.0 0.0 -90.0 xyz
      dof rx ry rz
   end
   begin
      id 13
      name LeftHand_dum1
      direction 0.000000 0.000000 0.000000
      length 0.000000
      axis 0.0 0.0 -90.0 xyz
   end
   begin
      id 14
      name LeftHand_dum2
      direction 1.000000 0.000000 0.000000
      length 3.937000
      axis 0.0 0.0 -90.0 xyz
   end
   begin
      id 15
      name LeftHandThumb1
      direction 0.000000 0.000000 1.000000
      length 3.937000
      axis 0.0 0.0 -90.0 xyz
      dof rx rz ry
   end
   begin
      id 16
      name RightShoulder
      direction -1.000000 0.000000 0.000000
      length 7.028855
      axis 0.0 0.0 90.0 xyz
      dof rx ry rz
   end
   begin
      id 17
      name RightArm
      direction -1.000000 0.000000 0.000000
      length 10.797705
      axis 0.0 0.0 90.0 xyz
      dof rx ry rz
   end
   begin
      id 18
      name RightForeArm
      direction -1.000000 0.000000 0.000000
      length 7.907442
      axis 0.0 0.0 90.0 xyz
      dof ry rz rx
   end
   begin
      id 19
      name RightHand
      direction 0.000000 0.000000 0.000000
      length 0.000000
      axis 0.0 0.0 90.0 xyz
      dof rx ry rz
   end
   begin
      id 20
      name RightHand_dum1
      direction 0.000000 0.000000 0.000000
      length 0.000000
      axis 0.0 0.0 90.0 xyz
   end
   begin
      id 21
      name RightHand_dum2
      direction -1.000000 0.000000 0.000000
      length 3.937000
      axis 0.0 0.0 90.0 xyz
   end
   begin
      id 22
      name RightHandThumb1
      direction 0.000000 0.000000 1.000000
      length 3.937000
      axis 0.0 0.0 90.0 xyz
      dof rx rz ry
   end
   begin
      id 23
      name LeftUpLeg
      direction 0.000000 -1.000000 0.000000
      length 16.899758
      axis 0.0 0.0 0.0 xyz
      dof rx ry rz
   end
   begin
      id 24
      name LeftLeg
      direction 0.000000 -1.000000 0.000000
      length 17.389183
      axis 0.0 0.0 0.0 xyz
      dof rx ry rz
   end
   begin
      id 25
      name LeftFoot
      direction 0.000000 -0.258819 0.965926
      length 4.924528
      axis 15.0 0.0 0.0 xyz
      dof rx ry rz
   end
   begin
      id 26
      name LeftToeBase
      direction 0.000000 0.000000 1.000000
      length 2.952750
      axis 0.0 0.0 0.0 xyz
      dof rx ry rz
   end
   begin
      id 27
      name RightUpLeg
      direction 0.000000 -1.000000 0.000000
      length 16.899758
      axis 0.0 0.0 0.0 xyz
      dof rx ry rz
   end
   begin
      id 28
      name RightLeg
      direction 0.000000 -1.000000 0.000000
      length 17.389183
      axis 0.0 0.0 0.0 xyz
      dof rx ry rz
   end
   begin
      id 29
      name RightFoot
      direction 0.000000 -0.258819 0.965926
      length 4.924528
      axis 15.0 0.0 0.0 xyz
      dof rx ry rz
   end
   begin
      id 30
      name RightToeBase
      direction 0.000000 0.000000 1.000000
      length 2.952750
      axis 0.0 0.0 0.0 xyz
      dof rx ry rz
   end
:hierarchy
   begin
      root Spine_dum LeftUpLeg_dum RightUpLeg_dum
      Spine_dum Spine
      LeftUpLeg_dum LeftUpLeg
      RightUpLeg_dum RightUpLeg
      Spine Spine_dum1 Spine_dum2 Spine_dum3
      Spine_dum1 Head
      Spine_dum2 LeftShoulder
      Spine_dum3 RightShoulder
      LeftShoulder LeftArm
      LeftArm LeftForeArm
      LeftForeArm LeftHand
      LeftHand LeftHand_dum1 LeftHand_dum2
      LeftHand_dum1 LeftHandThumb1
      RightShoulder RightArm
      RightArm RightForeArm
      RightForeArm RightHand
      RightHand RightHand_dum1 RightHand_dum2
      RightHand_dum1 RightHandThumb1
      LeftUpLeg LeftLeg
      LeftLeg LeftFoot
      LeftFoot LeftToeBase
      RightUpLeg RightLeg
      RightLeg RightFoot
      RightFoot RightToeBase
   end

# File created by Blade
# Date/Time:  Fri Jan 16 19:14:28 2015
# Frame Rate: 120.000 fps
#------------------------------------------------------
:FULLY-SPECIFIED
:DEGREES
117
root 19.283919 35.637349 -22.689516 -170.811712 -2.550507 -178.788161
Spine -22.322253 0.513164 0.850325
Head 11.548157 -1.954510 0.261436
LeftShoulder -11.612118 -46.610660 36.621542
LeftArm 19.440298 1.212705 4.902199
LeftForeArm 23.044746 -0.000000 -1.637569
LeftHand -10.701323 0.000000 -10.581481
LeftHandThumb1 -26.253704 0.000000 33.147579
RightShoulder -10.186489 5.674838 -30.058303
RightArm 14.337586 34.484550 -6.153248
RightForeArm -49.353724 -0.000000 4.388746
RightHand -3.033620 0.000000 12.915340
RightHandThumb1 -24.326973 -0.000000 -32.862282
LeftUpLeg 0.514565 6.464145 1.309496
LeftLeg -6.308372 -0.000000 0.000000
LeftFoot -21.235362 27.982388 -15.580389
LeftToeBase 24.432312 -0.000000 -0.000000
RightUpLeg -0.547300 -9.180630 1.076932
RightLeg -3.270470 -0.000000 0.000000
RightFoot -21.645050 -23.992241 18.996479
RightToeBase 22.904171 -0.000000 -0.000000
118
root 19.287073 35.639026 -22.686336 -170.788394 -2.558181 -178.782812
Spine -22.393452 0.491051 0.830481
Head 11.582603 -2.005704 0.253622
LeftShoulder -11.601092 -46.892981 37.030089
LeftArm 20.103585 0.945808 5.047047
LeftForeArm 23.180608 -0.000000 -1.614285
LeftHand -10.510857 0.000000 -10.492699
LeftHandThumb1 -26.253704 0.000000 33.147579
RightShoulder -10.107921 5.900313 -30.424411
RightArm 14.872574 34.377155 -6.458042
RightForeArm -49.587241 -0.000000 4.439726
RightHand -3.057288 0.000000 12.831742
RightHandThumb1 -24.326973 -0.000000 -32.862282
LeftUpLeg 0.485051 6.477908 1.315759
LeftLeg -6.311817 -0.000000 0.000000
LeftFoot -21.232756 27.972015 -15.601211
LeftToeBase 24.463401 -0.000000 -0.000000
RightUpLeg -0.573975 -9.181326 1.097285
RightLeg -3.280232 -0.000000 0.000000
RightFoot -21.634555 -24.026975 19.012390
RightToeBase 22.909348 -0.000000 -0.000000
119
root 19.289718 35.640813 -22.683674 -170.771592 -2.571962 -178.777029
Spine -22.453810 0.452835 0.823212
Head 11.659239 -1.997032 0.286556
LeftShoulder -11.686657 -47.305594 37.527557
LeftArm 20.803847 0.892018 5.160729
LeftForeArm 23.206502 -0.000000 -1.539773
LeftHand -10.755021 -0.000000 -10.364790
LeftHandThumb1 -26.253704 0.000000 33.147579
RightShoulder -10.024942 6.264448 -30.831605
RightArm 15.385809 34.115355 -6.750183
RightForeArm -49.746500 -0.000000 4.598786
RightHand -3.108289 -0.000000 12.825535
RightHandThumb1 -24.326973 -0.000000 -32.862282
LeftUpLeg 0.463796 6.470514 1.324246
LeftLeg -6.317537 -0.000000 0.000000
LeftFoot -21.208814 27.968755 -15.608069
LeftToeBase 24.430129 -0.000000 -0.000000
RightUpLeg -0.590952 -9.196918 1.112021
RightLeg -3.287022 -0.000000 0.000000
RightFoot -21.623467 -24.009076 19.056445
RightToeBase 22.870716 -0.000000 -0.000000
120
root 19.291955 35.642518 -22.680883 -170.749534 -2.573223 -178.774214
Spine -22.516208 0.454097 0.794280
Head 11.719711 -2.074924 0.275861
LeftShoulder -11.646978 -47.588239 37.892517
LeftArm 21.492574 0.693390 5.339342
LeftForeArm 23.367265 0.000000 -1.542969
LeftHand -10.832056 -0.000000 -10.134089
LeftHandThumb1 -26.253704 0.000000 33.147579
RightShoulder -9.982393 6.567306 -31.226451
RightArm 15.921123 33.797153 -7.059103
RightForeArm -49.900049 0.000000 4.650904
RightHand -3.077200 -0.000000 12.596965
RightHandThumb1 -24.326973 -0.000000 -32.862282
LeftUpLeg 0.434026 6.475340 1.327479
LeftLeg -6.313319 -0.000000 0.000000
LeftFoot -21.212670 27.961614 -15.643224
LeftToeBase 24.431654 -0.000000 -0.000000
RightUpLeg -0.616850 -9.188362 1.119041
RightLeg -3.286296 -0.000000 0.000000
RightFoot -21.612282 -24.007753 19.049040
RightToeBase 22.900334 -0.000000 -0.000000
121
root 19.295564 35.643815 -22.677954 -170.730472 -2.570278 -178.767159
Spine -22.566772 0.469517 0.757291
Head 11.724316 -2.164477 0.288398
LeftShoulder -11.631401 -47.954848 38.333337
LeftArm 22.105887 0.454924 5.440907
LeftForeArm 23.472874 -0.000000 -1.431843
LeftHand -10.848872 -0.000000 -9.966322
LeftHandThumb1 -26.253704 0.000000 33.147579
RightShoulder -9.977773 6.749383 -31.576818
RightArm 16.524419 33.591409 -7.377539
RightForeArm -49.955196 0.000000 4.675077
RightHand -3.237069 0.000000 12.453845
RightHandThumb1 -24.326973 -0.000000 -32.862282
LeftUpLeg 0.414176 6.498375 1.335266
LeftLeg -6.323084 -0.000000 0.000000
LeftFoot -21.190923 27.938157 -15.647475
LeftToeBase 24.418995 -0.000000 -0.000000
RightUpLeg -0.635859 -9.187178 1.134894
RightLeg -3.300002 -0.000000 0.000000
RightFoot -21.595771 -23.992926 19.084668
RightToeBase 22.859120 -0.000000 -0.000000
